<?xml version="1.0" encoding="UTF-8" standalone="no"?>
<!DOCTYPE svg PUBLIC "-//W3C//DTD SVG 1.1//EN"
 "http://www.w3.org/Graphics/SVG/1.1/DTD/svg11.dtd">
<!-- Generated by graphviz version 2.40.1 (20161225.0304)
 -->
<!-- Title: dependencies Pages: 1 -->
<svg width="1008pt" height="284pt"
 viewBox="0.00 0.00 1008.00 284.00" xmlns="http://www.w3.org/2000/svg" xmlns:xlink="http://www.w3.org/1999/xlink">
<g id="graph0" class="graph" transform="scale(1 1) rotate(0) translate(4 280)">
<title>dependencies</title>
<polygon fill="#ffffff" stroke="transparent" points="-4,4 -4,-280 1004,-280 1004,4 -4,4"/>
<text text-anchor="start" x="479.0091" y="-42.4" font-family="sans-serif" font-weight="bold" font-size="14.00" fill="#000000">Legend</text>
<polygon fill="#ffffb3" stroke="transparent" points="266,-10 266,-30 286,-30 286,-10 266,-10"/>
<text text-anchor="start" x="289.629" y="-15.4" font-family="sans-serif" font-size="14.00" fill="#000000"> &#160;Declarations</text>
<polygon fill="#8dd3c7" stroke="transparent" points="379,-10 379,-30 399,-30 399,-10 379,-10"/>
<text text-anchor="start" x="402.7251" y="-15.4" font-family="sans-serif" font-size="14.00" fill="#000000"> &#160;Module</text>
<polygon fill="#80b1d3" stroke="transparent" points="465,-10 465,-30 485,-30 485,-10 465,-10"/>
<text text-anchor="start" x="488.7812" y="-15.4" font-family="sans-serif" font-size="14.00" fill="#000000"> &#160;Bootstrap</text>
<polygon fill="#fdb462" stroke="transparent" points="562,-10 562,-30 582,-30 582,-10 562,-10"/>
<text text-anchor="start" x="585.6732" y="-15.4" font-family="sans-serif" font-size="14.00" fill="#000000"> &#160;Providers</text>
<polygon fill="#fb8072" stroke="transparent" points="658,-10 658,-30 678,-30 678,-10 658,-10"/>
<text text-anchor="start" x="681.7258" y="-15.4" font-family="sans-serif" font-size="14.00" fill="#000000"> &#160;Exports</text>
<g id="clust1" class="cluster">
<title>cluster_MatCardsModule</title>
<polygon fill="none" stroke="#000000" stroke-dasharray="1,5" points="8,-70 8,-268 992,-268 992,-70 8,-70"/>
</g>
<g id="clust2" class="cluster">
<title>cluster_MatCardsModule_declarations</title>
<polygon fill="none" stroke="#000000" points="24,-78 24,-130 976,-130 976,-78 24,-78"/>
</g>
<g id="clust9" class="cluster">
<title>cluster_MatCardsModule_exports</title>
<polygon fill="none" stroke="#000000" points="16,-208 16,-260 984,-260 984,-208 16,-208"/>
</g>
<!-- LibComponent -->
<g id="node1" class="node">
<title>LibComponent</title>
<polygon fill="#ffffb3" stroke="#000000" points="968.2758,-122 867.7242,-122 867.7242,-86 968.2758,-86 968.2758,-122"/>
<text text-anchor="middle" x="918" y="-99.8" font-family="Times,serif" font-size="14.00" fill="#000000">LibComponent</text>
</g>
<!-- MatCardsModule -->
<g id="node6" class="node">
<title>MatCardsModule</title>
<polygon fill="#8dd3c7" stroke="#000000" points="611.2563,-187 608.2563,-191 587.2563,-191 584.2563,-187 496.7437,-187 496.7437,-151 611.2563,-151 611.2563,-187"/>
<text text-anchor="middle" x="554" y="-164.8" font-family="Times,serif" font-size="14.00" fill="#000000">MatCardsModule</text>
</g>
<!-- LibComponent&#45;&gt;MatCardsModule -->
<g id="edge1" class="edge">
<title>LibComponent&#45;&gt;MatCardsModule</title>
<path fill="none" stroke="#000000" d="M936.2126,-122.2667C936.2126,-140.5552 936.2126,-166 936.2126,-166 936.2126,-166 621.6349,-166 621.6349,-166"/>
<polygon fill="#000000" stroke="#000000" points="621.635,-162.5001 611.6349,-166 621.6349,-169.5001 621.635,-162.5001"/>
</g>
<!-- MatCardFeatureComponent -->
<g id="node2" class="node">
<title>MatCardFeatureComponent</title>
<polygon fill="#ffffb3" stroke="#000000" points="849.5716,-122 676.4284,-122 676.4284,-86 849.5716,-86 849.5716,-122"/>
<text text-anchor="middle" x="763" y="-99.8" font-family="Times,serif" font-size="14.00" fill="#000000">MatCardFeatureComponent</text>
</g>
<!-- MatCardFeatureComponent&#45;&gt;MatCardsModule -->
<g id="edge2" class="edge">
<title>MatCardFeatureComponent&#45;&gt;MatCardsModule</title>
<path fill="none" stroke="#000000" d="M792.2619,-122.0091C792.2619,-138.0494 792.2619,-159 792.2619,-159 792.2619,-159 621.3729,-159 621.3729,-159"/>
<polygon fill="#000000" stroke="#000000" points="621.3729,-155.5001 611.3729,-159 621.3728,-162.5001 621.3729,-155.5001"/>
</g>
<!-- MatCardNetworkStateComponent -->
<g id="node3" class="node">
<title>MatCardNetworkStateComponent</title>
<polygon fill="#ffffb3" stroke="#000000" points="658.066,-122 449.934,-122 449.934,-86 658.066,-86 658.066,-122"/>
<text text-anchor="middle" x="554" y="-99.8" font-family="Times,serif" font-size="14.00" fill="#000000">MatCardNetworkStateComponent</text>
</g>
<!-- MatCardNetworkStateComponent&#45;&gt;MatCardsModule -->
<g id="edge3" class="edge">
<title>MatCardNetworkStateComponent&#45;&gt;MatCardsModule</title>
<path fill="none" stroke="#000000" d="M554,-122.1061C554,-122.1061 554,-140.991 554,-140.991"/>
<polygon fill="#000000" stroke="#000000" points="550.5001,-140.9909 554,-150.991 557.5001,-140.991 550.5001,-140.9909"/>
</g>
<!-- MatCardPricingComponent -->
<g id="node4" class="node">
<title>MatCardPricingComponent</title>
<polygon fill="#ffffb3" stroke="#000000" points="431.5336,-122 260.4664,-122 260.4664,-86 431.5336,-86 431.5336,-122"/>
<text text-anchor="middle" x="346" y="-99.8" font-family="Times,serif" font-size="14.00" fill="#000000">MatCardPricingComponent</text>
</g>
<!-- MatCardPricingComponent&#45;&gt;MatCardsModule -->
<g id="edge4" class="edge">
<title>MatCardPricingComponent&#45;&gt;MatCardsModule</title>
<path fill="none" stroke="#000000" d="M373.7555,-122.0091C373.7555,-138.0494 373.7555,-159 373.7555,-159 373.7555,-159 486.4739,-159 486.4739,-159"/>
<polygon fill="#000000" stroke="#000000" points="486.474,-162.5001 496.4739,-159 486.4739,-155.5001 486.474,-162.5001"/>
</g>
<!-- MatCardTeamMemberComponent -->
<g id="node5" class="node">
<title>MatCardTeamMemberComponent</title>
<polygon fill="#ffffb3" stroke="#000000" points="242.3918,-122 31.6082,-122 31.6082,-86 242.3918,-86 242.3918,-122"/>
<text text-anchor="middle" x="137" y="-99.8" font-family="Times,serif" font-size="14.00" fill="#000000">MatCardTeamMemberComponent</text>
</g>
<!-- MatCardTeamMemberComponent&#45;&gt;MatCardsModule -->
<g id="edge5" class="edge">
<title>MatCardTeamMemberComponent&#45;&gt;MatCardsModule</title>
<path fill="none" stroke="#000000" d="M169.2319,-122.2667C169.2319,-140.5552 169.2319,-166 169.2319,-166 169.2319,-166 486.3963,-166 486.3963,-166"/>
<polygon fill="#000000" stroke="#000000" points="486.3964,-169.5001 496.3963,-166 486.3963,-162.5001 486.3964,-169.5001"/>
</g>
<!-- LibComponent  -->
<g id="node7" class="node">
<title>LibComponent </title>
<polygon fill="#fb8072" stroke="#000000" points="976.276,-252 871.724,-252 871.724,-216 976.276,-216 976.276,-252"/>
<text text-anchor="middle" x="924" y="-229.8" font-family="Times,serif" font-size="14.00" fill="#000000">LibComponent </text>
</g>
<!-- MatCardsModule&#45;&gt;LibComponent  -->
<g id="edge6" class="edge">
<title>MatCardsModule&#45;&gt;LibComponent </title>
<path fill="none" stroke="#000000" stroke-dasharray="5,2" d="M611.4096,-173C710.7143,-173 904.0374,-173 904.0374,-173 904.0374,-173 904.0374,-205.698 904.0374,-205.698"/>
<polygon fill="#000000" stroke="#000000" points="900.5375,-205.698 904.0374,-215.698 907.5375,-205.698 900.5375,-205.698"/>
</g>
<!-- MatCardFeatureComponent  -->
<g id="node8" class="node">
<title>MatCardFeatureComponent </title>
<polygon fill="#fb8072" stroke="#000000" points="854.0721,-252 677.9279,-252 677.9279,-216 854.0721,-216 854.0721,-252"/>
<text text-anchor="middle" x="766" y="-229.8" font-family="Times,serif" font-size="14.00" fill="#000000">MatCardFeatureComponent </text>
</g>
<!-- MatCardsModule&#45;&gt;MatCardFeatureComponent  -->
<g id="edge7" class="edge">
<title>MatCardsModule&#45;&gt;MatCardFeatureComponent </title>
<path fill="none" stroke="#000000" stroke-dasharray="5,2" d="M611.2658,-180C664.2896,-180 734.9881,-180 734.9881,-180 734.9881,-180 734.9881,-205.7181 734.9881,-205.7181"/>
<polygon fill="#000000" stroke="#000000" points="731.4882,-205.718 734.9881,-215.7181 738.4882,-205.7181 731.4882,-205.718"/>
</g>
<!-- MatCardNetworkStateComponent  -->
<g id="node9" class="node">
<title>MatCardNetworkStateComponent </title>
<polygon fill="#fb8072" stroke="#000000" points="659.5664,-252 448.4336,-252 448.4336,-216 659.5664,-216 659.5664,-252"/>
<text text-anchor="middle" x="554" y="-229.8" font-family="Times,serif" font-size="14.00" fill="#000000">MatCardNetworkStateComponent </text>
</g>
<!-- MatCardsModule&#45;&gt;MatCardNetworkStateComponent  -->
<g id="edge8" class="edge">
<title>MatCardsModule&#45;&gt;MatCardNetworkStateComponent </title>
<path fill="none" stroke="#000000" stroke-dasharray="5,2" d="M554,-187.1061C554,-187.1061 554,-205.991 554,-205.991"/>
<polygon fill="#000000" stroke="#000000" points="550.5001,-205.9909 554,-215.991 557.5001,-205.991 550.5001,-205.9909"/>
</g>
<!-- MatCardPricingComponent  -->
<g id="node10" class="node">
<title>MatCardPricingComponent </title>
<polygon fill="#fb8072" stroke="#000000" points="430.533,-252 255.467,-252 255.467,-216 430.533,-216 430.533,-252"/>
<text text-anchor="middle" x="343" y="-229.8" font-family="Times,serif" font-size="14.00" fill="#000000">MatCardPricingComponent </text>
</g>
<!-- MatCardsModule&#45;&gt;MatCardPricingComponent  -->
<g id="edge9" class="edge">
<title>MatCardsModule&#45;&gt;MatCardPricingComponent </title>
<path fill="none" stroke="#000000" stroke-dasharray="5,2" d="M496.6276,-180C426.4851,-180 316.9945,-180 316.9945,-180 316.9945,-180 316.9945,-205.7181 316.9945,-205.7181"/>
<polygon fill="#000000" stroke="#000000" points="313.4946,-205.718 316.9945,-215.7181 320.4946,-205.7181 313.4946,-205.718"/>
</g>
<!-- MatCardTeamMemberComponent  -->
<g id="node11" class="node">
<title>MatCardTeamMemberComponent </title>
<polygon fill="#fb8072" stroke="#000000" points="237.8914,-252 24.1086,-252 24.1086,-216 237.8914,-216 237.8914,-252"/>
<text text-anchor="middle" x="131" y="-229.8" font-family="Times,serif" font-size="14.00" fill="#000000">MatCardTeamMemberComponent </text>
</g>
<!-- MatCardsModule&#45;&gt;MatCardTeamMemberComponent  -->
<g id="edge10" class="edge">
<title>MatCardsModule&#45;&gt;MatCardTeamMemberComponent </title>
<path fill="none" stroke="#000000" stroke-dasharray="5,2" d="M496.5662,-173C374.5406,-173 100.5181,-173 100.5181,-173 100.5181,-173 100.5181,-205.698 100.5181,-205.698"/>
<polygon fill="#000000" stroke="#000000" points="97.0182,-205.698 100.5181,-215.698 104.0182,-205.698 97.0182,-205.698"/>
</g>
</g>
</svg>
